Coordinates
version=1
nRows=12
nColumns=24
inDegrees=yes

Units are S.I. units (second, meters, Newtons, ...)
Angles are in degrees.

endheader
time	pelvis_tilt	pelvis_list	pelvis_rotation	pelvis_tx	pelvis_ty	pelvis_tz	hip_flexion_r	hip_adduction_r	hip_rotation_r	knee_angle_r	ankle_angle_r	subtalar_angle_r	mtp_angle_r	hip_flexion_l	hip_adduction_l	hip_rotation_l	knee_angle_l	ankle_angle_l	subtalar_angle_l	mtp_angle_l	lumbar_extension	lumbar_bending	lumbar_rotation
      0.46200000	     -2.29833999	      4.64987456	      1.61685884	     -0.77782448	      0.97994655	      0.27846339	     30.24154476	     -2.91079688	     -3.11663064	    -16.74768660	      7.54299513	     -4.67626759	      0.53523104	    -13.42411184	      8.54755462	      2.44940592	     -3.93476374	     10.51445793	     -4.06622989	      0.12230003	     -1.42721078	     -2.17707205	     -1.15775418
      0.46616667	     -2.30837851	      4.64564996	      1.64746021	     -0.77203210	      0.97934686	      0.27871505	     30.13099641	     -2.86883874	     -3.21894016	    -16.59387049	      7.34543955	     -4.73351266	      0.60993998	    -13.44280625	      8.51489447	      2.50090687	     -4.57955874	     10.62072971	     -4.07777549	      0.10822828	     -1.39368204	     -2.16242303	     -1.16272654
      0.47033333	     -2.35612370	      4.62668701	      1.67419866	     -0.76621543	      0.97874219	      0.27903964	     30.03296323	     -2.79156878	     -3.22303262	    -16.45739011	      7.06344601	     -4.89826995	      0.83505836	    -13.34269177	      8.45537830	      2.37146425	     -5.37258023	     10.77687855	     -3.72866683	      0.09358754	     -1.31232912	     -2.14298003	     -1.27259106
      0.47450000	     -2.34771647	      4.61338213	      1.68255063	     -0.76034769	      0.97822874	      0.27929952	     29.90638912	     -2.73604180	     -3.30709503	    -16.46831478	      6.83513225	     -4.99143249	      0.93832192	    -13.31326990	      8.41939012	      2.35670516	     -6.14722305	     10.89972872	     -3.72039462	      0.10082443	     -1.28631426	     -2.10214041	     -1.27506926
      0.47866667	     -2.35254403	      4.58413668	      1.68720596	     -0.75447807	      0.97776231	      0.27966996	     29.76251963	     -2.63629573	     -3.25744009	    -16.48422749	      6.57980771	     -5.29713278	      1.41082001	    -13.18176041	      8.34620214	      2.14393652	     -7.08759557	     11.05835014	     -3.29257441	      0.18174446	     -1.25955754	     -2.07330059	     -1.35065424
      0.48283333	     -2.37031822	      4.56540013	      1.70192729	     -0.74855845	      0.97732248	      0.27991930	     29.65164913	     -2.58043620	     -3.31689169	    -16.60043149	      6.20764848	     -5.35929427	      1.51504915	    -13.06074387	      8.30698780	      2.17605914	     -7.97290700	     11.03663678	     -3.33317971	      0.21537578	     -1.20749763	     -2.02323141	     -1.34387777
      0.48700000	     -2.42549189	      4.54665943	      1.72260485	     -0.74263722	      0.97688900	      0.28024062	     29.55113162	     -2.50642068	     -3.26518028	    -16.71579438	      5.86916387	     -5.58916354	      1.75135535	    -12.81723933	      8.25195330	      2.05872446	     -9.01971204	     11.05742796	     -3.09783195	      0.32439929	     -1.09042641	     -2.00692051	     -1.39560637
      0.49116667	     -2.39438454	      4.49882282	      1.70460150	     -0.73668185	      0.97659326	      0.28060618	     29.37723858	     -2.38886004	     -3.20255482	    -16.92835237	      5.57839977	     -5.99314700	      2.39191863	    -12.63390546	      8.16617251	      1.86341895	    -10.12271505	     11.12087039	     -2.80082474	      0.70420468	     -1.10186663	     -1.92918126	     -1.40464085
      0.49533333	     -2.45959114	      4.48511848	      1.69344997	     -0.73071191	      0.97619996	      0.28092484	     29.32343128	     -2.32081466	     -3.15600007	    -17.20731299	      5.22046968	     -6.15287849	      2.77867504	    -12.32468558	      8.12982428	      1.75642817	    -11.25990054	     10.98396531	     -2.71898856	      0.99993156	     -0.97396152	     -1.89053614	     -1.41857387
      0.49950000	     -2.45259417	      4.44359117	      1.69995482	     -0.72471093	      0.97597975	      0.28118940	     29.17574618	     -2.24492328	     -3.17886942	    -17.49763999	      4.79404371	     -6.25854697	      2.88269604	    -12.07691595	      8.06637813	      1.74984058	    -12.42507208	     10.82439453	     -2.75758511	      1.10789940	     -0.95039964	     -1.80729609	     -1.37689267
      0.50366667	     -2.47495229	      4.38999397	      1.67080531	     -0.71873270	      0.97572943	      0.28162783	     29.05102719	     -2.10787844	     -3.01746524	    -17.80253004	      4.52577491	     -6.68116524	      3.21443522	    -11.68647109	      7.96395928	      1.46519215	    -13.79127400	     10.71902300	     -2.40505599	      1.51458505	     -0.87364755	     -1.74136135	     -1.37686678
      0.50783333	     -2.50455148	      4.33526622	      1.65176205	     -0.71276095	      0.97550152	      0.28201613	     28.94666353	     -1.98722668	     -2.90820441	    -18.15439320	      4.19133302	     -7.02260261	      3.63929771	    -11.25696262	      7.86563271	      1.25305570	    -15.20950807	     10.52593417	     -2.19977885	      2.15219924	     -0.79457260	     -1.66050679	     -1.33342248
